HIERARCHY
ROOT root
{
	OFFSET	0	13.1	24.9
	CHANNELS 6  Xposition Yposition Zposition Xrotation Yrotation Zrotation
	JOINT spine_1
	{
		OFFSET	0	9.99999	0
		CHANNELS 3  Xrotation Yrotation Zrotation
		JOINT spine_2
		{
			OFFSET	0	112	-10
			CHANNELS 3  Xrotation Yrotation Zrotation
			JOINT spine_3
			{
				OFFSET	0	206.5	19.3
				CHANNELS 3  Xrotation Yrotation Zrotation
				JOINT spine_4
				{
					OFFSET	0	110.4	14.6
					CHANNELS 3  Xrotation Yrotation Zrotation
					JOINT neck_1
					{
						OFFSET	0	71.8	-50.3
						CHANNELS 3  Xrotation Yrotation Zrotation
						JOINT neck_2
						{
							OFFSET	0	86.2	-25.8
							CHANNELS 3  Xrotation Yrotation Zrotation
							JOINT head_ee
							{
								OFFSET	0	179.8	-8.7
								CHANNELS 3  Xrotation Yrotation Zrotation
								End Site
								{
									OFFSET	1	0	0
								}
							}
						}
					}
					JOINT left_clavicle
					{
						OFFSET	-43.2	22.4	-70.8
						CHANNELS 3  Xrotation Yrotation Zrotation
						JOINT left_shoulder
						{
							OFFSET	-93.9	-5.79999	48.7
							CHANNELS 3  Xrotation Yrotation Zrotation
							JOINT left_elbow
							{
								OFFSET	-291.4	-30.8	15.2
								CHANNELS 3  Xrotation Yrotation Zrotation
								JOINT left_lowarm_twist
								{
									OFFSET	-110.7	-3.89999	13.6
									CHANNELS 3  Xrotation Yrotation Zrotation
									JOINT left_hand
									{
										OFFSET	-110.7	-3.89999	13.6
										CHANNELS 3  Xrotation Yrotation Zrotation
										JOINT left_ee
										{
											OFFSET	-80.8	-5.10001	12.1
											CHANNELS 3  Xrotation Yrotation Zrotation
											End Site
											{
												OFFSET	1	0	0
											}
										}
									}
								}
							}
						}
					}
					JOINT right_clavicle
					{
						OFFSET	43.2	22.4	-70.8
						CHANNELS 3  Xrotation Yrotation Zrotation
						JOINT right_shoulder
						{
							OFFSET	93.9	-5.79999	48.7
							CHANNELS 3  Xrotation Yrotation Zrotation
							JOINT right_elbow
							{
								OFFSET	291.4	-30.8	15.2
								CHANNELS 3  Xrotation Yrotation Zrotation
								JOINT right_lowarm_twist
								{
									OFFSET	110.7	-3.89999	13.6
									CHANNELS 3  Xrotation Yrotation Zrotation
									JOINT right_hand
									{
										OFFSET	110.7	-3.89999	13.6
										CHANNELS 3  Xrotation Yrotation Zrotation
										JOINT right_ee
										{
											OFFSET	80.8	-5.10001	12.1
											CHANNELS 3  Xrotation Yrotation Zrotation
											End Site
											{
												OFFSET	1	0	0
											}
										}
									}
								}
							}
						}
					}
				}
			}
		}
	}
	JOINT left_hip
	{
		OFFSET	-82.8	-127.5	0.300001
		CHANNELS 3  Xrotation Yrotation Zrotation
		JOINT left_knee
		{
			OFFSET	-28.2	-396.7	2.2
			CHANNELS 3  Xrotation Yrotation Zrotation
			JOINT left_ankle
			{
				OFFSET	-11.7	-411.3	35.4
				CHANNELS 3  Xrotation Yrotation Zrotation
				JOINT left_toes
				{
					OFFSET	0	-60	-88.6
					CHANNELS 3  Xrotation Yrotation Zrotation
					JOINT left_foot_ee
					{
						OFFSET	-22.5	-16.5	-42.2
						CHANNELS 3  Xrotation Yrotation Zrotation
						End Site
						{
							OFFSET	1	0	0
						}
					}
				}
			}
		}
	}
	JOINT right_hip
	{
		OFFSET	82.8	-127.5	0.300001
		CHANNELS 3  Xrotation Yrotation Zrotation
		JOINT right_knee
		{
			OFFSET	28.2	-396.7	2.2
			CHANNELS 3  Xrotation Yrotation Zrotation
			JOINT right_ankle
			{
				OFFSET	11.7	-411.3	35.4
				CHANNELS 3  Xrotation Yrotation Zrotation
				JOINT right_toes
				{
					OFFSET	0	-60	-88.6
					CHANNELS 3  Xrotation Yrotation Zrotation
					JOINT right_foot_ee
					{
						OFFSET	22.5	-16.5	-42.2
						CHANNELS 3  Xrotation Yrotation Zrotation
						End Site
						{
							OFFSET	1	0	0
						}
					}
				}
			}
		}
	}
}
MOTION
Frames: 13
Frame Time: 0.02
391.555 721.904 -1204.45 -171.643801614 1.70448280766 175.844409673 4.54532 0.83454 2.77934 4.54938 0.656064 2.82676 4.57873 0.279282 2.88838 4.56783 0.731763 2.80813 -28.5017 -6.79852 -10.0094 -28.4316 -9.47218 -13.194 -0.0 0.0 -0.0 3.61355 -0.541839 6.93677 -45.4338 -13.9947 48.1052 1.01648 -26.7263 0.241475 17.175 0.282158 -2.1676 -0.636327 3.85087 -2.58402 -0.0 0.0 -0.0 11.4977 5.76112 -23.084 -23.2806 24.6529 -51.1386 0.959258 25.4161 -0.216324 40.1148 0.355247 5.00887 -1.90832 -10.4018 7.91528 0.0 0.0 0.0 11.2957 -34.815 0.688028 -3.85461 0.139403 0.575028 15.557 28.1502 -2.31388 -26.5867 0.0 0.0 -0.0 0.0 -0.0 9.83504 0.553347 4.35514 -5.87709 -0.196976 -0.880058 23.2422 -4.97252 3.12603 2.85599 -0.0 -0.0 0.0 0.0 0.0 
390.422358237 723.328 -1199.35142504 -171.123095953 0.284532395293 175.950443258 4.45957 0.722799 2.89269 4.46406 0.537347 2.93278 4.48835 0.142816 2.97814 4.4765 0.611163 2.9183 -27.0237 -7.53284 -10.7641 -26.9299 -10.3756 -14.0656 -0.0 0.0 -0.0 3.77536 0.696288 7.31777 -45.0366 -13.5364 49.0808 1.03413 -27.1244 0.249467 17.1863 0.282128 -2.16906 -0.691421 2.25477 -3.64142 -0.0 0.0 -0.0 11.5896 6.44434 -23.3059 -22.6131 24.3524 -50.2977 0.977617 25.8396 -0.224265 40.3375 0.366932 5.03484 -2.04158 -12.5511 7.72719 0.0 0.0 0.0 12.6061 -31.8894 0.451741 -3.32022 0.122394 0.494779 15.9539 29.1132 -2.38494 -26.2379 0.0 0.0 -0.0 0.0 -0.0 9.65286 0.701786 5.03699 -5.34011 -0.182741 -0.798879 22.7206 -3.1643 3.0686 1.89705 -0.0 -0.0 0.0 0.0 0.0 
391.297700837 721.915 -1197.53776287 -170.992252548 -1.05314245651 175.610256011 4.39165 0.698579 3.0316 4.39662 0.504348 3.06986 4.42019 0.0881405 3.10973 4.40716 0.577926 3.05687 -26.9254 -6.94683 -10.7732 -26.7801 -9.22613 -13.7411 -0.0 0.0 -0.0 3.87274 1.66655 7.55311 -44.5437 -13.8818 49.7437 1.06329 -27.7761 0.26291 17.1624 0.282191 -2.16601 -0.71144 3.24253 -3.34464 -0.0 0.0 -0.0 11.6176 6.62642 -23.3725 -22.2486 24.1505 -49.9609 1.05998 27.7025 -0.261369 40.4603 0.373421 5.04915 -2.07467 -13.1242 7.65656 0.0 0.0 0.0 13.8176 -29.7545 1.01162 -2.687 0.10127 0.399895 16.4055 30.4191 -2.47142 -26.3479 0.0 0.0 -0.0 0.0 -0.0 9.38127 0.803377 5.55291 -5.3681 -0.183502 -0.803109 22.9102 -3.26602 3.09089 1.67864 -0.0 -0.0 0.0 0.0 0.0 
394.541145933 721.492 -1193.48105468 -171.419893201 -2.57833505538 175.470498577 4.28211 0.717014 3.1566 4.28751 0.514804 3.19577 4.31265 0.0755503 3.23604 4.29852 0.585413 3.1836 -26.9633 -5.83504 -11.7488 -26.6691 -6.71776 -14.0504 -0.0 0.0 -0.0 4.1293 2.63813 8.08434 -43.9507 -13.933 50.5811 1.07099 -27.9469 0.266509 16.9834 0.282617 -2.14315 -0.87133 5.33537 -3.4845 -0.0 0.0 -0.0 11.5891 5.98464 -23.292 -21.4195 24.1106 -49.7752 1.09963 28.5775 -0.280071 40.5635 0.378893 5.06115 -2.19915 -13.5995 8.20995 0.0 0.0 0.0 14.0147 -28.1933 1.02837 -2.53686 0.0961078 0.377431 16.0384 28.7111 -2.39026 -26.4354 0.0 0.0 -0.0 0.0 -0.0 8.54269 -0.778392 5.43297 -6.15054 -0.203932 -0.921446 23.6038 -4.6038 3.16956 1.41986 -0.0 -0.0 0.0 0.0 0.0 
413.034193558 720.563 -1178.5763868 -170.758054248 -14.818870601 175.789970388 3.43841 1.09052 4.00126 3.44692 0.833919 4.0624 3.50257 0.216003 4.14135 3.47969 0.8668 4.05552 -26.1291 -5.17387 -11.4062 -25.8202 -5.41608 -13.285 -0.0 0.0 -0.0 5.18524 6.562 10.1521 -40.4988 -13.3632 53.3034 1.02521 -26.9235 0.245413 16.7439 0.283077 -2.11255 -1.28897 8.29035 -4.89326 -0.0 0.0 -0.0 11.5232 6.42916 -23.1588 -19.3716 24.0951 -49.4651 1.17373 30.1741 -0.316423 41.0497 0.404983 5.11761 -1.88664 -12.6558 6.69188 0.0 0.0 0.0 21.3119 -24.2848 4.34259 -4.26497 0.151956 0.636755 9.16067 29.3619 -1.4026 -26.808 0.0 0.0 -0.0 0.0 -0.0 6.21803 -5.17319 7.17695 -2.65161 -0.100059 -0.394598 24.5068 -10.6527 3.28111 0.365967 -0.0 -0.0 0.0 0.0 0.0 
428.737423184 715.077 -1171.6830112 -169.480313341 -19.7746859338 175.902785351 3.60719 1.16537 4.31255 3.61709 0.888863 4.37779 3.68043 0.237126 4.46066 3.6539 0.937951 4.36756 -25.2211 -4.70632 -14.1019 -24.6809 -3.22425 -15.4414 -0.0 0.0 -0.0 5.3834 7.57302 10.519 -40.9985 -13.8143 55.0344 1.0098 -26.5749 0.23848 16.1785 0.283654 -2.04034 -1.26371 11.5303 -3.26321 -0.0 0.0 -0.0 11.3615 4.18748 -22.7309 -19.0225 24.2037 -49.7918 1.22772 31.3058 -0.344022 38.0888 0.253604 4.77055 -1.81824 -10.8222 7.13374 0.0 0.0 0.0 26.0135 -21.625 6.90264 -12.2938 0.307857 1.85795 10.1878 30.2614 -1.56492 -24.2723 0.0 0.0 -0.0 0.0 -0.0 5.64085 -4.67768 8.90721 -1.28875 -0.0509156 -0.191219 24.8343 -13.8326 3.33741 -0.409834 0.0 0.0 0.0 0.0 0.0 
449.854779946 714.274 -1165.30327582 -169.503493202 -23.4193900503 177.081610773 3.57085 0.998937 4.21038 3.58042 0.729246 4.26527 3.63036 0.0914879 4.32608 3.60508 0.772937 4.25758 -23.8936 -3.56053 -13.9498 -23.3493 -0.745563 -14.6373 -0.0 0.0 -0.0 5.84708 9.26561 11.3432 -39.7383 -13.3414 56.3326 0.90346 -24.1105 0.192951 15.7521 0.283618 -1.98588 -1.26794 16.1684 -1.19708 -0.0 0.0 -0.0 11.2155 2.0956 -22.3183 -19.6077 24.7859 -50.0231 1.2341 31.4378 -0.347342 36.7488 0.191049 4.61106 -1.48943 -8.80958 5.95576 0.0 0.0 0.0 28.6309 -21.0822 8.46448 -18.0557 0.313713 2.7416 9.52941 30.4136 -1.46828 -22.661 0.0 0.0 -0.0 0.0 -0.0 3.38921 -5.19307 7.92564 -1.06193 -0.0422666 -0.157483 26.0654 -18.5186 3.52956 -0.98932 0.0 0.0 0.0 0.0 0.0 
489.107418469 704.704 -1158.93308433 -168.512082069 -30.5803580807 178.814332938 3.49885 0.519298 4.08538 3.5081 0.258507 4.11009 3.52251 -0.360125 4.10245 3.49915 0.291738 4.10787 -22.446 -1.73177 -11.0671 -22.1101 1.80839 -11.0557 -0.0 0.0 -0.0 6.01231 10.9399 11.6044 -37.7644 -13.008 57.3446 0.84718 -22.7661 0.170563 16.44 0.283476 -2.07375 -0.767755 29.0572 7.18606 -0.0 0.0 -0.0 10.4135 0.565976 -20.542 -22.4482 25.4261 -48.8963 1.35821 33.9315 -0.414376 34.1388 0.0800016 4.29643 -0.383491 -8.52058 -1.06234 0.0 0.0 0.0 31.0389 -19.8011 11.2836 -22.4372 0.258733 3.41148 7.3633 29.1882 -1.13189 -19.6437 0.0 0.0 -0.0 0.0 -0.0 2.90247 -8.2783 11.2151 -1.73487 -0.0675353 -0.257667 27.3944 -28.4745 3.88621 -3.56355 0.0 0.0 0.0 0.0 0.0 
542.385980357 698.892 -1139.10042025 -169.400231041 -35.9738024399 178.920164887 3.14914 0.166371 3.53589 3.15609 -0.0588201 3.53931 3.14991 -0.611509 3.48664 3.13296 -0.0535441 3.53939 -17.1379 -2.1498 -9.84371 -16.8681 1.36952 -10.0047 -0.0 0.0 -0.0 6.37387 11.3963 12.2227 -34.9719 -13.1426 57.291 0.701926 -19.1733 0.118555 18.0963 0.278805 -2.28523 0.545336 29.3867 14.4817 -0.0 0.0 -0.0 9.87483 -1.46186 -19.3218 -25.454 25.811 -49.0837 1.41036 34.9381 -0.443867 26.7291 -0.155813 3.38006 0.233356 -15.6203 -7.83523 0.0 0.0 0.0 29.8103 -21.3313 14.6105 -26.8138 0.152858 4.07462 17.9584 27.3254 -2.63327 -15.5022 0.0 0.0 -0.0 0.0 -0.0 0.769414 -14.2399 14.8535 -2.86199 -0.107213 -0.426092 20.3773 -27.4931 2.96259 -9.13782 0.0 0.0 0.0 0.0 0.0 
573.454459018 693.68 -1123.40843281 -171.076931314 -36.005122226 179.135996814 2.59157 -0.00832029 3.17471 2.59715 -0.210216 3.16776 2.5842 -0.733593 3.08889 2.57096 -0.236811 3.16589 -15.9336 -2.10207 -10.617 -15.6217 2.1259 -10.7192 -0.0 0.0 -0.0 6.10102 12.1705 11.7259 -33.2125 -13.1665 56.6261 0.670433 -18.3721 0.10842 18.2476 0.278074 -2.30454 0.63409 27.1573 14.2845 -0.0 0.0 -0.0 9.65915 -2.59331 -18.8206 -25.779 26.1064 -49.4928 1.3381 33.5369 -0.403209 24.7655 -0.198269 3.13283 0.439866 -18.4896 -10.1815 0.0 0.0 0.0 26.873 -22.7528 13.3934 -29.5369 0.0615269 4.48251 22.5314 28.2182 -3.26196 -14.8571 0.0 0.0 -0.0 0.0 -0.0 -0.403904 -13.6625 15.0464 -7.4255 -0.233753 -1.11482 18.487 -27.2396 2.70375 -8.96358 0.0 0.0 0.0 0.0 0.0 
589.417904948 692.144 -1111.65121698 -172.238788016 -36.5311697727 179.386299329 2.29307 0.100107 2.93655 2.29786 -0.0868747 2.93697 2.29268 -0.58805 2.87886 2.28114 -0.126212 2.93555 -16.3937 -2.53367 -11.8676 -16.0026 1.92842 -12.0419 -0.0 0.0 -0.0 6.07597 11.6044 11.6986 -32.199 -13.4976 56.296 0.684997 -18.7435 0.113055 18.4521 0.277005 -2.33065 1.07824 28.3896 17.1917 -0.0 0.0 -0.0 9.35343 -4.0492 -18.1239 -27.0915 24.9454 -49.5903 1.39263 34.5986 -0.433757 23.8805 -0.214628 3.02096 0.415988 -18.139 -9.90721 0.0 0.0 0.0 25.2452 -27.9587 14.273 -30.9641 0.00593469 4.69447 30.7921 26.2462 -4.23063 -15.1636 0.0 0.0 -0.0 0.0 -0.0 -0.241355 -10.508 14.7577 -13.1315 -0.31423 -1.98632 11.147 -29.9521 1.70346 -9.18371 0.0 0.0 0.0 0.0 0.0 
588.921081802 692.144 -1110.59919799 -172.269075871 -36.228934349 179.335235805 2.29307 0.100107 2.93655 2.29786 -0.0868747 2.93697 2.29268 -0.58805 2.87886 2.28114 -0.126212 2.93555 -16.3937 -2.53367 -11.8676 -16.0026 1.92842 -12.0419 -0.0 0.0 -0.0 6.07597 11.6044 11.6986 -32.199 -13.4976 56.296 0.684997 -18.7435 0.113055 18.4521 0.277005 -2.33065 1.07824 28.3896 17.1917 -0.0 0.0 -0.0 9.35343 -4.0492 -18.1239 -27.0915 24.9454 -49.5903 1.39263 34.5986 -0.433757 23.8805 -0.214628 3.02096 0.415988 -18.139 -9.90721 0.0 0.0 0.0 25.2452 -27.9587 14.273 -30.9641 0.00593469 4.69447 30.7921 26.2462 -4.23063 -15.1636 0.0 0.0 -0.0 0.0 -0.0 -0.241355 -10.508 14.7577 -13.1315 -0.31423 -1.98632 11.147 -29.9521 1.70346 -9.18371 0.0 0.0 0.0 0.0 0.0 
587.730325951 692.144 -1108.1349712 -172.338567144 -35.5178721686 179.216651571 2.29307 0.100107 2.93655 2.29786 -0.0868747 2.93697 2.29268 -0.58805 2.87886 2.28114 -0.126212 2.93555 -16.3937 -2.53367 -11.8676 -16.0026 1.92842 -12.0419 -0.0 0.0 -0.0 6.07597 11.6044 11.6986 -32.199 -13.4976 56.296 0.684997 -18.7435 0.113055 18.4521 0.277005 -2.33065 1.07824 28.3896 17.1917 -0.0 0.0 -0.0 9.35343 -4.0492 -18.1239 -27.0915 24.9454 -49.5903 1.39263 34.5986 -0.433757 23.8805 -0.214628 3.02096 0.415988 -18.139 -9.90721 0.0 0.0 0.0 25.2452 -27.9587 14.273 -30.9641 0.00593469 4.69447 30.7921 26.2462 -4.23063 -15.1636 0.0 0.0 -0.0 0.0 -0.0 -0.241355 -10.508 14.7577 -13.1315 -0.31423 -1.98632 11.147 -29.9521 1.70346 -9.18371 0.0 0.0 0.0 0.0 0.0 
